<?xml version="1.0" standalone="no"?>
<!DOCTYPE svg PUBLIC "-//W3C//DTD SVG 20010904//EN"
 "http://www.w3.org/TR/2001/REC-SVG-20010904/DTD/svg10.dtd">
<svg version="1.0" xmlns="http://www.w3.org/2000/svg"
 width="260.000000pt" height="260.000000pt" viewBox="0 0 260.000000 260.000000"
 preserveAspectRatio="xMidYMid meet">
<metadata>
Created by potrace 1.14, written by Peter Selinger 2001-2017
</metadata>
<g transform="translate(0.000000,260.000000) scale(0.100000,-0.100000)"
fill="#000000" stroke="none">
<path d="M100 1338 l0 -708 450 0 c369 0 450 2 457 14 8 13 95 116 122 143 12
12 14 104 14 548 l0 534 -35 43 c-20 24 -54 63 -76 88 l-40 45 -446 1 -446 0
0 -708z m745 -3 l0 -350 -223 0 -222 0 -1 35 c0 43 0 581 0 633 l1 37 222 -2
223 -3 0 -350z"/>
<path d="M1285 2041 c-3 -2 -5 -281 -5 -620 l0 -616 73 -87 72 -87 188 0 187
-1 24 53 c12 28 29 67 36 85 15 38 20 34 44 -28 10 -25 25 -60 33 -77 l15 -33
187 0 186 0 73 87 c63 76 72 92 73 128 0 50 0 1164 0 1186 -1 13 -22 15 -146
16 -80 0 -146 -3 -146 -6 -1 -3 -3 -238 -4 -521 -2 -283 -3 -520 -4 -526 -1
-10 -140 -14 -142 -4 -1 3 -2 241 -3 530 l-1 525 -149 0 -149 0 -1 -530 -1
-530 -72 0 -73 0 -1 430 c0 236 0 475 1 530 l1 101 -146 0 c-80 0 -148 -2
-150 -5z"/>
</g>
</svg>
