<svg width="16" height="17" viewBox="0 0 16 17" fill="none" xmlns="http://www.w3.org/2000/svg">
<path d="M15.6528 7.71104C15.9677 7.39068 16.0789 6.92051 15.943 6.48344C15.8069 6.04637 15.4522 5.73437 15.0165 5.66816L11.1425 5.0806C10.9775 5.05552 10.8349 4.94751 10.7612 4.79134L9.02922 1.12759C8.83475 0.715934 8.44004 0.460114 8.00016 0.460114C7.5606 0.460114 7.16589 0.715934 6.97142 1.12759L5.23912 4.79168C5.16543 4.94784 5.02254 5.05586 4.85755 5.08094L0.983502 5.66849C0.548105 5.73437 0.193123 6.0467 0.0569613 6.48377C-0.0788801 6.92084 0.032292 7.39102 0.347226 7.71138L3.15024 10.5632C3.26974 10.6849 3.32452 10.8601 3.29633 11.0314L2.63506 15.0583C2.57644 15.4128 2.6655 15.7575 2.88528 16.0294C3.22681 16.4531 3.82304 16.5822 4.29976 16.3207L7.76436 14.4192C7.90917 14.34 8.09147 14.3406 8.23596 14.4192L11.7009 16.3207C11.8694 16.4133 12.0491 16.4601 12.2346 16.4601C12.5733 16.4601 12.8943 16.3029 13.115 16.0294C13.3351 15.7575 13.4239 15.4121 13.3653 15.0583L12.7037 11.0314C12.6755 10.8598 12.7303 10.6849 12.8498 10.5632L15.6528 7.71104Z" fill="#F7931A"/>
</svg>
