<svg width="16" height="16" viewBox="0 0 16 16" fill="none" xmlns="http://www.w3.org/2000/svg">
<path d="M15.6528 7.25119C15.9677 6.93083 16.0789 6.46066 15.943 6.0236C15.8069 5.58653 15.4522 5.27454 15.0165 5.20832L11.1424 4.62078C10.9774 4.5957 10.8348 4.48769 10.7611 4.33152L9.02908 0.667468C8.83461 0.255818 8.43989 0 8 0C7.56043 0 7.16571 0.255818 6.97124 0.667468L5.2389 4.33152C5.16521 4.48769 5.02232 4.5957 4.85732 4.62078L0.983202 5.20866C0.547796 5.27454 0.193127 5.58653 0.0569624 6.0236C-0.0788817 6.46066 0.0322926 6.93083 0.347233 7.25119L3.1503 10.103C3.2698 10.2247 3.32459 10.3999 3.2964 10.5711L2.6348 14.5984C2.56047 15.0508 2.73508 15.4992 3.09103 15.7694C3.44666 16.04 3.90962 16.0751 4.29953 15.8607L7.76419 13.9593C7.91189 13.8784 8.08811 13.8784 8.2358 13.9593L11.7008 15.8607C11.87 15.9537 12.0532 15.9995 12.2355 15.9995C12.4723 15.9995 12.7081 15.9223 12.9093 15.7694C13.2652 15.4992 13.4399 15.0508 13.3655 14.5984L12.7036 10.5715C12.6754 10.3999 12.7302 10.225 12.8497 10.1033L15.6528 7.25119ZM12.0724 10.6845L12.734 14.7114C12.7674 14.914 12.6921 15.1077 12.5325 15.2287C12.3726 15.3494 12.1737 15.3641 11.9991 15.2692L8.53409 13.3674C8.36716 13.2761 8.18326 13.23 8 13.23C7.81674 13.23 7.63316 13.2761 7.46591 13.3678L4.00157 15.2692C3.82632 15.3641 3.62736 15.3494 3.4678 15.2287C3.30825 15.1077 3.23328 14.9144 3.26628 14.7114L3.92788 10.6845C3.99164 10.2959 3.86829 9.89933 3.59788 9.62445L0.794494 6.77233C0.653203 6.62853 0.605145 6.42589 0.666339 6.23026C0.727212 6.0343 0.880037 5.89987 1.07515 5.87011L4.94895 5.28256C5.32284 5.22605 5.64612 4.98127 5.81304 4.62747L7.54537 0.963415C7.63252 0.778824 7.80264 0.668806 7.99968 0.668806C8.19704 0.668806 8.36684 0.778824 8.45431 0.963415L10.1866 4.62747C10.3536 4.98127 10.6765 5.22605 11.0504 5.28256L14.9245 5.87011C15.1196 5.89987 15.2725 6.0343 15.3333 6.23026C15.3942 6.42589 15.3465 6.62853 15.2052 6.77233L12.4021 9.62411C12.1317 9.89933 12.0084 10.2956 12.0724 10.6845Z" fill="#333333" fill-opacity="0.3"/>
</svg>
